# xmcd
#
# Track frame offsets:
# 150
# 15620
# 35230
# 55547
# 72695
# 87257
# 98215
# 118112
# 141782
#
# Disc length: 2119 seconds
#
#
# Revision: 0
# Processed by: cddbd v1.5.1PL0 Copyright (c) Steve Scherf et al.
# Submitted via: FreeRIP 2.942 
#
DISCID=7d084509
DTITLE=memphis la blusera - tonto rompecabezas
DYEAR=1996
DGENRE=Blues
TTITLE0=amor en movimiento
TTITLE1=blues de rosario
TTITLE2=decime cuando
TTITLE3=sopa de letras
TTITLE4=lanzando la flecha
TTITLE5=cuentan las monedas
TTITLE6=tonto rompecabezas
TTITLE7=chau catalina
TTITLE8=el escruche
EXTD=
EXTT0=
EXTT1=
EXTT2=
EXTT3=
EXTT4=
EXTT5=
EXTT6=
EXTT7=
EXTT8=
PLAYORDER=
